<?xml version="1.0" encoding="UTF-8"?>
<svg width="81.728mm" height="81.728mm" version="1.1" viewBox="0 0 81.728 81.728" xmlns="http://www.w3.org/2000/svg">
    <g transform="translate(-64.43 -117.25)">
        <path d="m110.33 189.73q-5.2871 0.64395-7.5169-3.0126-1.721-2.8802-2.8825-9.514-1.223-6.6701-1.7193-14.854-0.5028-8.2273-0.06974-15.823 0.4815-7.646 1.9979-12.5 1.0814-2.8903 3.1282-4.5758 2.0403-1.7291 4.0401-1.8564 1.9998-0.12737 2.8494 1.802 6.7122-2.7364 12.119-2.9526 5.4558-0.2668 9.1918 1.4641 3.736 1.731 5.2276 4.9514 1.4916 3.2205 0.32403 7.408-1.174 4.144-5.5254 8.7904 6.1354-0.22225 9.597 2.2983 3.5167 2.5134 4.32 6.7547 0.80325 4.2414-1.0302 9.2252-1.7849 4.9331-6.1848 9.6301-4.3999 4.697-11.399 8.1361-6.9446 3.4318-16.467 4.6272zm0.40811-51.584q0.30453 7.2775 0.66044 14.149 6.4105-3.6284 9.5915-7.1024 3.181-3.474 3.6219-6.1479 0.49585-2.681-1.2172-4.0101-1.6581-1.3363-4.9809-0.68195-3.3293 0.61084-7.6756 3.7931zm2.6602 41.738q0.0203 0.8843 1.0878 0.52358 5.8133-1.9986 9.4966-4.7397 3.7318-2.7918 5.6933-5.7967 1.955-3.0484 2.3343-5.7585 0.60156-3.8478-1.1991-5.3872-1.7522-1.5901-4.9165-1.0007-3.1643 0.58934-6.7152 3.0916-4.5822 3.4791-6.9678 6.273 0.26914 4.0448 0.59186 6.5749 0.29018 2.3126 0.59478 6.2198z" fill="#ffa500" stroke="#fff" style="paint-order:fill markers stroke" />
    </g>
    <g transform="translate(-1.7893 -11.108)">
        <path d="m21.919 78.077q-4.5994 0.1258-8.1047-1.4814-3.4495-1.5762-5.8761-4.4437-2.3845-2.913-3.7615-6.646-1.377-3.733-1.7336-7.9363-0.62316-8.1862 1.2806-14.341 1.9037-6.1547 5.5455-10.195 3.6418-4.0403 8.1418-5.8302 4.5-1.7899 9.0274-1.2008 4.5694 0.54351 8.3353 3.5945 3.7659 3.051 5.8906 8.6999 2.1178 5.6109 1.8123 13.941-0.37319 7.6761-2.9037 13.42-2.4817 5.7362-6.9723 8.9702-4.4418 3.2264-10.682 3.4491zm-4.6062-37.497q-1.1131 3.2976-1.5865 7.3558-0.42455 4.0507-0.23516 8.1626 0.23826 4.1044 1.0648 7.5709 0.82651 3.4665 2.2576 5.5502 1.4799 2.0762 3.5456 2.1083 2.0939-0.08938 4.0344-2.4211 1.9336-2.3697 3.1822-6.5868 1.2417-4.2552 1.2041-10.032-0.15585-8.1022-1.712-12.55-1.3556-3.8926-3.6484-4.9054-2.244-1.0204-4.482 0.4978-2.2449 1.4802-3.6246 5.2488z" fill="#ffa500" stroke="#fff" style="paint-order:fill markers stroke" />
    </g>
</svg>
