<?xml version="1.0" encoding="UTF-8"?>
<svg version="1.1" viewBox="0 0 512 512" xml:space="preserve" xmlns="http://www.w3.org/2000/svg" xmlns:cc="http://creativecommons.org/ns#" xmlns:dc="http://purl.org/dc/elements/1.1/" xmlns:rdf="http://www.w3.org/1999/02/22-rdf-syntax-ns#">
    <metadata>
        <rdf:RDF>
            <cc:Work rdf:about="">
                <dc:format>image/svg+xml</dc:format>
                <dc:type rdf:resource="http://purl.org/dc/dcmitype/StillImage" />
            </cc:Work>
        </rdf:RDF>
    </metadata>
    <g transform="matrix(14.222 0 0 -14.222 42.667 276.14)">
        <path d="m0 0c0 9.112 7.387 16.5 16.499 16.5 9.114 0 16.5-7.388 16.5-16.5 0-9.113-7.386-16.5-16.5-16.5-9.112 0-16.499 7.387-16.499 16.5" fill="#f4900c" />
    </g>
    <g transform="matrix(14.222 0 0 -14.222 162.34 106.69)">
        <path d="m0 0c-0.267 0.267-0.797 0.197-1.355-0.12-3.3 2.732-8.653 3.652-8.895 3.692-0.546 0.09-1.059-0.277-1.15-0.821s0.276-1.06 0.821-1.151c0.053-0.01 4.933-0.854 7.821-3.16-0.275-0.525-0.324-1.015-0.07-1.268 0.39-0.391 1.34-0.074 2.121 0.707s1.098 1.731 0.707 2.121" fill="#662113" />
    </g>
    <g transform="matrix(14.222 0 0 -14.222 298.68 13.019)">
        <path d="m0 0s-3.106-4.318-7.021-5.273c-2.98-0.727-6.938-0.797-7.333 0.122-0.394 0.919 1.572 3.937 4.969 5.393s9.385-0.242 9.385-0.242" fill="#5c913b" />
    </g>
    <g transform="matrix(15.168 0 0 12.851 -2615.5 -2055.2)" fill="#fff" stroke-width=".81375" style="shape-inside:url(#rect16887);white-space:pre" aria-label="B">
        <path d="m185.28 195.19q-1.875-0.0195-2.4609-1.7578-0.44922-1.3672-0.50781-4.3555-0.0781-3.0078 0.17578-6.6406 0.2539-3.6524 0.80078-6.9727 0.56641-3.3398 1.3477-5.3906 0.52734-1.2109 1.3281-1.8359 0.80078-0.64453 1.5039-0.58594 0.70312 0.0586 0.89843 0.95703 2.4805-0.82031 4.375-0.60547 1.9141 0.19532 3.125 1.1719 1.2109 0.97656 1.5625 2.4805 0.35157 1.5039-0.27343 3.2812-0.625 1.7578-2.3828 3.5547 2.1484 0.25391 3.2227 1.5625 1.0938 1.3086 1.1523 3.2227 0.0586 1.9141-0.83984 4.0039-0.87891 2.0703-2.6562 3.8867-1.7773 1.8164-4.3945 2.9297-2.5977 1.1133-5.9766 1.0938zm2.832-22.695q-0.27344 3.2227-0.50781 6.2695 2.4219-1.2305 3.7109-2.5781 1.2891-1.3477 1.582-2.5 0.3125-1.1524-0.21484-1.8359-0.50781-0.68359-1.6992-0.58594-1.1914 0.0781-2.8711 1.2305zm-1.25 18.535q-0.0391 0.39062 0.35156 0.29297 2.1289-0.54688 3.5547-1.543 1.4453-1.0156 2.2852-2.2266 0.83985-1.2305 1.1133-2.4023 0.41015-1.6602-0.13672-2.4414-0.52735-0.80078-1.6602-0.72265-1.1328 0.0781-2.5 0.97656-1.7773 1.2695-2.7539 2.3633-0.11718 1.7969-0.13671 2.9297-0.0195 1.0352-0.11719 2.7734z" />
    </g>
</svg>
